<svg width="23" height="18" viewBox="0 0 23 18" fill="none" xmlns="http://www.w3.org/2000/svg">
<path fill-rule="evenodd" clip-rule="evenodd" d="M7.89111 6.05096H12.2765C14.0816 6.05096 15.5582 7.52779 15.5582 9.33267C15.5582 11.1377 14.0814 12.6144 12.2765 12.6144H7.89111V6.05096Z" fill="#EF4937"/>
<path fill-rule="evenodd" clip-rule="evenodd" d="M0 10.0487H1.4321V9.47017H9.29859L9.21189 9.19528H1.4321V8.61676H0V10.0487ZM1.1591 9.77569H0.273002V8.88976H1.1591C1.1591 9.2259 1.1591 9.43955 1.1591 9.77569Z" fill="#EF4937"/>
<path fill-rule="evenodd" clip-rule="evenodd" d="M3.44482 5.41H4.87693V5.98852H6.00919L6.61729 6.39845H9.29846V6.68384L6.61162 6.68401C6.39693 6.5531 6.14836 6.40138 5.92249 6.26359H4.87693V6.8421H3.44482V5.41018V5.41ZM4.60392 5.68301H3.71783V6.56893H4.60392C4.60392 6.23279 4.60392 6.01914 4.60392 5.68301Z" fill="#EF4937"/>
<path fill-rule="evenodd" clip-rule="evenodd" d="M2.28369 8.62079H3.71562V8.04227H4.93561L5.54372 7.63234H9.29866V7.34695L5.53822 7.34678C5.32353 7.47769 5.07495 7.62942 4.84909 7.76721H3.71579V7.18869H2.28386V8.62062L2.28369 8.62079ZM3.44279 8.34779H2.55669V7.46186H3.44279C3.44279 7.798 3.44279 8.01165 3.44279 8.34779Z" fill="#EF4937"/>
<path fill-rule="evenodd" clip-rule="evenodd" d="M3.44482 13.2547H4.87693V12.6762H6.00919L6.61729 12.2663H9.29846V11.9809L6.61162 11.9807C6.39693 12.1116 6.14836 12.2633 5.92249 12.4011H4.87693V11.8226H3.44482V13.2545V13.2547ZM4.60392 12.9817H3.71783V12.0958H4.60392C4.60392 12.4319 4.60392 12.6456 4.60392 12.9817Z" fill="#EF4937"/>
<path fill-rule="evenodd" clip-rule="evenodd" d="M2.28369 10.0445H3.71562V10.623H4.93561L5.54372 11.0329H9.29866V11.3183L5.53822 11.3185C5.32353 11.1876 5.07495 11.0358 4.84909 10.898H3.71579V11.4766H2.28386V10.0446L2.28369 10.0445ZM3.44279 10.3175H2.55669V11.2034H3.44279C3.44279 10.8673 3.44279 10.6536 3.44279 10.3175Z" fill="#EF4937"/>
<path fill-rule="evenodd" clip-rule="evenodd" d="M5.08105 17.7852H12.7614C18.2923 17.7852 22.0841 14.4522 22.0841 9.33208C22.0841 4.21178 18.2923 0.878815 12.7614 0.878815H5.08105V4.09102H8.99357H9.62868H12.5681C15.9253 4.09102 18.1231 6.09579 18.1231 9.33208C18.1231 12.5684 15.9253 14.573 12.5681 14.573H9.62868H8.99357H5.08105V17.7852Z" fill="white"/>
</svg>
