<svg width="25" height="25" viewBox="0 0 25 25" fill="none" xmlns="http://www.w3.org/2000/svg">
<path d="M17.6999 12.3246C17.7007 12.4563 17.6754 12.5867 17.6257 12.7086C17.5759 12.8304 17.5026 12.9412 17.4099 13.0346L11.4099 19.0346C11.3167 19.1279 11.206 19.2018 11.0841 19.2523C10.9623 19.3028 10.8318 19.3287 10.6999 19.3287C10.4336 19.3287 10.1782 19.2229 9.98989 19.0346C9.80159 18.8463 9.6958 18.5909 9.6958 18.3246C9.6958 18.0583 9.80159 17.8029 9.98989 17.6146L15.2799 12.3246L9.98989 7.03464C9.89665 6.94141 9.82269 6.83072 9.77223 6.70889C9.72177 6.58707 9.6958 6.4565 9.6958 6.32465C9.6958 6.19279 9.72177 6.06222 9.77223 5.9404C9.82269 5.81857 9.89665 5.70789 9.98989 5.61465C10.0831 5.52141 10.1938 5.44745 10.3156 5.39699C10.4375 5.34653 10.568 5.32055 10.6999 5.32055C10.8318 5.32055 10.9623 5.34653 11.0841 5.39699C11.206 5.44745 11.3167 5.52141 11.4099 5.61465L17.4099 11.6146C17.5026 11.7081 17.5759 11.8189 17.6257 11.9407C17.6754 12.0626 17.7007 12.193 17.6999 12.3246Z" fill="white"/>
</svg>
