<svg width="392" height="257" viewBox="0 0 392 257" fill="none" xmlns="http://www.w3.org/2000/svg">
<path d="M255.426 37.5732C250.317 37.182 243.392 43.8159 248.403 47.0052C251.181 48.7743 257.231 48.0088 257.155 44.7004C257.142 44.6086 257.092 44.5225 257.011 44.455C256.93 44.3875 256.823 44.3423 256.706 44.3262C252.691 43.6118 248.709 44.9555 249.387 48.5787C249.751 50.1405 250.786 51.5603 252.322 52.6061C253.858 53.6519 255.804 54.2619 257.844 54.3365C258.085 54.3365 257.997 54.0133 257.844 53.9793C254.343 53.4095 251.039 51.717 250.35 48.8083C250.194 48.2935 250.181 47.7589 250.311 47.2399C250.441 46.7208 250.712 46.2292 251.105 45.7975C251.573 45.3603 252.191 45.0358 252.888 44.862C253.49 44.7174 255.645 44.4537 256.17 44.862C257.111 45.6189 254.551 46.9032 253.785 47.1073C253.029 47.3183 252.222 47.3971 251.423 47.3383C250.623 47.2796 249.849 47.0845 249.158 46.7671C247.035 45.6104 247.56 43.4331 248.589 41.8937C249.978 39.81 252.407 38.1175 255.536 38.0325C255.82 38.0325 255.667 37.6157 255.448 37.5987L255.426 37.5732Z" fill="#BA68C8"/>
<path d="M257.123 168.244C258.731 165.429 258.556 162.511 263.238 161.584C265.295 161.176 270.163 160.802 271.706 162.222C271.987 162.565 272.101 162.975 272.026 163.378C271.952 163.78 271.695 164.149 271.301 164.417C270.087 165.267 269.179 164.246 268.861 163.345C268.617 162.513 268.711 161.642 269.13 160.853C269.55 160.064 270.274 159.395 271.202 158.939C273.167 157.933 275.545 157.536 277.868 157.826C280.191 158.115 282.289 159.071 283.751 160.504C283.926 160.674 284.112 160.504 284.035 160.317C280.447 153.896 263.249 158.361 268.719 164.519C270.393 166.381 273.347 164.74 272.789 162.767C272.176 160.581 267.384 160.691 265.262 160.802C263.111 160.803 261.037 161.424 259.442 162.545C257.571 163.974 257.32 166.237 256.926 168.159C256.926 168.244 257.024 168.371 257.101 168.244H257.123Z" fill="#BA68C8"/>
<path d="M379.792 30.1654C383.15 29.3999 387.767 29.6125 390.579 31.3731C392.767 32.7339 393.992 35.6851 390.786 36.6972C389.528 37.0884 385.382 37.0884 384.89 35.7616C384.54 34.8346 385.82 34.2818 386.848 34.1627C389.857 33.797 392.679 36.2634 392.602 38.4662C392.504 41.7747 387.548 42.8718 384.047 42.8973C383.818 42.8973 383.872 43.2375 384.047 43.246C390.01 43.6968 396.661 39.4018 391.355 35.0982C389.933 33.9416 387.701 33.1166 385.645 33.7545C384.485 34.1202 383.566 34.9367 384.146 35.9147C385.076 37.4881 388.817 37.7603 390.633 37.3606C391.115 37.261 391.565 37.0857 391.956 36.8455C392.346 36.6054 392.67 36.3054 392.906 35.9643C393.141 35.6231 393.285 35.2479 393.327 34.862C393.369 34.4761 393.308 34.0875 393.149 33.7204C391.683 29.536 384.146 28.6175 379.682 29.9187C379.551 29.9187 379.606 30.1994 379.759 30.1654H379.792Z" fill="#BA68C8"/>
<path d="M399.189 78.5672C395.185 79.4943 391.465 84.9715 395.185 87.4634C398.347 89.5812 404.736 89.1049 403.674 85.065C403.664 85.019 403.639 84.9758 403.601 84.94C403.562 84.9041 403.512 84.8768 403.456 84.8609C399.255 84.0785 397.865 87.8887 398.751 90.4062C400.119 94.3185 405.195 94.2674 408.86 92.2262C408.98 92.1582 408.926 91.886 408.751 91.9541C405.753 93.1193 401.552 94.1569 399.725 91.1801C398.751 89.5897 398.719 86.9276 400.6 85.7284C401.09 85.3733 401.736 85.1784 402.405 85.1841C403.806 85.3117 403.565 86.4854 402.777 87.2338C401.519 88.4245 398.992 88.2969 397.307 87.8377C391.542 86.2472 395.502 80.4383 399.266 78.8054C399.375 78.7543 399.353 78.5332 399.189 78.5672Z" fill="#BA68C8"/>
<path d="M310.149 64.8827C305.423 64.4149 295.259 67.5107 297.907 72.5372C299.318 75.2163 305.62 76.9343 307.687 73.864C307.732 73.7803 307.732 73.6866 307.69 73.6025C307.647 73.5184 307.563 73.4505 307.457 73.4132C297.611 69.0757 287.24 81.6035 297.688 86.1707C298.016 86.3153 298.005 85.8815 297.819 85.7709C296.918 85.2912 296.149 84.6764 295.556 83.9627C294.964 83.249 294.561 82.4506 294.371 81.6143C294.18 80.778 294.206 79.9205 294.447 79.0921C294.688 78.2637 295.139 77.481 295.774 76.7897C296.838 75.4686 298.353 74.4028 300.15 73.7109C301.495 73.2176 304.876 72.5202 306.134 73.5408C306.703 74.0171 306.692 73.4217 306.396 73.9745C306.116 74.3029 305.686 74.5368 305.193 74.6294C304.119 74.8946 302.96 74.8646 301.911 74.5444C299.723 73.949 298.005 72.3841 298.629 70.5045C299.778 66.7368 305.948 65.4015 310.269 65.342C310.564 65.342 310.378 64.9082 310.149 64.8827Z" fill="#BA68C8"/>
<path d="M331.657 30.9733C331.657 30.9733 331.372 35.0897 335.3 37.3776L339.413 36.3995C339.413 36.3995 336.667 35.3789 335.3 30.9733H331.657Z" fill="#455A64"/>
<path d="M262.362 130.626C262.362 130.626 262.067 134.743 265.995 137.03L270.119 136.052C270.119 136.052 267.362 135.032 265.995 130.626H262.362Z" fill="#455A64"/>
<path d="M295.992 177.012C295.992 177.012 295.697 181.12 299.635 183.408L303.749 182.439C303.749 182.439 301.003 181.409 299.635 177.012H295.992Z" fill="#37474F"/>
<path d="M396.716 182.966C396.716 182.966 394.32 186.64 389.441 187.082L386.498 184.641C386.498 184.641 389.55 184.82 393.565 181.546L396.716 182.966Z" fill="#455A64"/>
<path d="M329.381 105.8C329.381 105.8 326.985 109.474 322.106 109.917L319.163 107.476C319.163 107.476 322.215 107.654 326.23 104.38L329.381 105.8Z" fill="#BA68C8"/>
<path d="M285.609 60.4601C285.609 60.4601 283.214 64.1343 278.345 64.585L275.402 62.1356C275.402 62.1356 278.444 62.3227 282.47 59.0483L285.609 60.4601Z" fill="#455A64"/>
<path d="M376.511 65.9884C376.511 65.9884 371.248 66.4987 368.043 63.5985L369.017 60.3411C369.017 60.3411 370.515 62.4078 376.259 63.1647L376.511 65.9884Z" fill="#BA68C8"/>
<path d="M300.215 45.9081C300.215 45.9081 294.964 46.4184 291.759 43.5267L292.722 40.2693C292.722 40.2693 294.231 42.3275 299.975 43.093L300.215 45.9081Z" fill="#BA68C8"/>
<path d="M211.743 36.9779C211.743 36.9779 206.492 37.4882 203.286 34.5965L204.249 31.3391C204.249 31.3391 205.759 33.3973 211.491 34.1627L211.743 36.9779Z" fill="#BA68C8"/>
<path d="M274.692 91.852C274.692 91.852 269.441 92.3538 266.235 89.4621L267.198 86.2047C267.198 86.2047 268.708 88.2714 274.451 89.0284L274.692 91.852Z" fill="#BA68C8"/>
<path d="M340.486 81.0847C340.486 81.0847 338.09 84.7589 333.21 85.2096L330.268 82.7602C330.268 82.7602 333.867 83.194 337.926 79.9195L340.486 81.0847Z" fill="#455A64"/>
<path d="M345.779 86.5109C345.779 86.5109 344.839 90.5678 340.309 92.0817L336.59 90.3807C339.222 89.4575 341.409 87.909 342.837 85.9581L345.779 86.5109Z" fill="#37474F"/>
<path d="M160.872 34.3924C165.992 34.0011 172.906 40.6265 167.895 43.8159C165.128 45.5934 159.067 44.8195 159.143 41.511C159.158 41.4208 159.21 41.3366 159.29 41.2708C159.371 41.2049 159.477 41.161 159.592 41.1453C163.618 40.4309 167.589 41.7662 166.911 45.3978C166.549 46.9581 165.516 48.3766 163.982 49.4211C162.447 50.4655 160.502 51.0741 158.465 51.1472C158.214 51.1472 158.301 50.824 158.465 50.7985C161.966 50.2201 165.27 48.5276 165.948 45.6189C166.106 45.1057 166.121 44.572 165.991 44.054C165.86 43.536 165.589 43.0458 165.193 42.6167C164.72 42.1644 164.084 41.8326 163.366 41.6641C162.776 41.5195 160.609 41.2559 160.139 41.6641C159.187 42.4296 161.758 43.7053 162.524 43.9094C163.278 44.1232 164.083 44.2036 164.882 44.1448C165.68 44.0859 166.452 43.8893 167.141 43.5692C169.263 42.4211 168.738 40.2438 167.71 38.6959C166.331 36.6207 163.891 34.9197 160.763 34.8431C160.489 34.8431 160.631 34.4264 160.85 34.4094L160.872 34.3924Z" fill="#BA68C8"/>
<path d="M152.666 173.806C151.058 170.991 151.222 168.074 146.551 167.138C144.494 166.73 139.626 166.356 138.072 167.785C137.794 168.127 137.682 168.535 137.756 168.935C137.831 169.336 138.086 169.703 138.477 169.97C139.702 170.821 140.665 169.8 140.928 168.907C141.173 168.074 141.079 167.201 140.66 166.411C140.241 165.62 139.516 164.95 138.587 164.493C136.616 163.476 134.225 163.073 131.889 163.364C129.554 163.656 127.445 164.621 125.984 166.067C125.82 166.228 125.634 166.067 125.71 165.879C129.298 159.458 146.496 163.923 141.026 170.081C139.352 171.944 136.388 170.294 136.946 168.329C137.569 166.143 142.416 166.254 144.472 166.356C146.626 166.359 148.702 166.98 150.303 168.099C152.174 169.537 152.426 171.799 152.819 173.713C152.819 173.806 152.721 173.925 152.644 173.806H152.666Z" fill="#BA68C8"/>
<path d="M18.2257 30.1654C14.8671 29.3999 10.2504 29.6125 7.4279 31.3731C5.2399 32.7339 4.02556 35.6851 7.23098 36.6972C8.48908 37.0884 12.6353 37.0884 13.1276 35.7617C13.4777 34.8346 12.1977 34.2818 11.1694 34.1627C8.16088 33.797 5.33836 36.2634 5.404 38.4662C5.5134 41.7747 10.4692 42.8718 13.97 42.8973C14.1998 42.8973 14.1451 43.2375 13.97 43.246C8.00772 43.6968 1.3562 39.4018 6.65116 35.0983C8.0843 33.9416 10.3161 33.1166 12.3728 33.7545C13.5324 34.1202 14.4514 34.9367 13.8716 35.9147C12.9417 37.4882 9.20017 37.7603 7.38414 37.3606C6.90268 37.261 6.45261 37.0857 6.06176 36.8456C5.6709 36.6054 5.34757 36.3054 5.11174 35.9643C4.87591 35.6231 4.73259 35.2479 4.69066 34.862C4.64873 34.4761 4.70907 34.0875 4.86794 33.7205C6.3339 29.536 13.8606 28.6175 18.3351 29.9187C18.4664 29.9187 18.4117 30.1994 18.2585 30.1654H18.2257Z" fill="#BA68C8"/>
<path d="M0.492085 149.796C-6.32353 150.222 -5.09826 160.283 0.404563 161.644C0.742758 161.738 1.10161 161.779 1.4603 161.764C1.819 161.75 2.1704 161.68 2.49411 161.559C2.89782 161.328 3.22192 161.023 3.43759 160.672C3.65326 160.32 3.75382 159.932 3.73032 159.543C3.07392 157.842 -0.645675 160.002 -1.07234 160.674C-1.7806 161.56 -2.11116 162.596 -2.01687 163.636C-1.92257 164.677 -1.40824 165.667 -0.54722 166.466C2.25342 168.822 7.61402 168.899 11.1148 167.538C11.2899 167.461 11.3227 167.725 11.2023 167.793C7.42805 169.673 1.10472 169.4 -1.69591 166.424C-3.88391 164.042 -2.38513 157.723 2.49411 158.284C7.04515 158.803 3.89442 162.835 0.448324 162.299C-2.99778 161.763 -4.24493 158.208 -4.57313 156.005C-4.98885 153.232 -3.92767 149.49 0.492085 149.55C0.634305 149.55 0.623365 149.788 0.492085 149.796Z" fill="#BA68C8"/>
<path d="M86.0862 64.8827C90.8122 64.4149 100.976 67.5107 98.328 72.5372C96.9168 75.2163 90.6153 76.9343 88.5477 73.864C88.5033 73.7803 88.5024 73.6866 88.5453 73.6025C88.5881 73.5184 88.6714 73.4505 88.7774 73.4132C98.6234 69.0757 108.995 81.6035 98.5468 86.1707C98.2186 86.3153 98.2296 85.8815 98.4155 85.7709C99.3186 85.2911 100.089 84.676 100.682 83.9615C101.276 83.2471 101.679 82.4478 101.87 81.6105C102.06 80.7731 102.034 79.9147 101.792 79.0854C101.55 78.2561 101.098 77.4727 100.461 76.7812C99.397 75.4601 97.8822 74.3943 96.0853 73.7024C94.7397 73.2091 91.3592 72.5117 90.1011 73.5323C89.5323 74.0086 89.5432 73.4132 89.8386 73.966C90.1193 74.2944 90.5491 74.5283 91.042 74.6209C92.1161 74.8861 93.2749 74.8561 94.324 74.5359C96.512 73.9405 98.2296 72.3756 97.606 70.496C96.4573 66.7283 90.2871 65.393 85.9658 65.3335C85.6704 65.3335 85.8564 64.8997 86.0862 64.8742V64.8827Z" fill="#BA68C8"/>
<path d="M66.9088 38.4577C66.9088 38.4577 67.2042 42.5742 63.2658 44.862L59.1523 43.8754C59.1523 43.8754 61.8983 42.8548 63.2658 38.4492L66.9088 38.4577Z" fill="#455A64"/>
<path d="M151.923 140.33C151.923 140.33 152.219 144.447 148.28 146.735L144.167 145.765C144.167 145.765 146.913 144.736 148.28 140.33H151.923Z" fill="#455A64"/>
<path d="M135.667 189.532C135.667 189.532 135.951 193.648 132.024 195.936L127.91 194.958C127.91 194.958 130.656 193.937 132.024 189.532H135.667Z" fill="#37474F"/>
<path d="M22.1963 178.484C22.1963 178.484 24.5921 182.158 29.4714 182.609L32.4142 180.159C32.4142 180.159 29.362 180.346 25.347 177.072L22.1963 178.484Z" fill="#455A64"/>
<path d="M74.0088 110.563C74.0088 110.563 76.4046 114.237 81.2839 114.688L84.2158 112.238C84.2158 112.238 81.1745 112.426 77.1595 109.151L74.0088 110.563Z" fill="#BA68C8"/>
<path d="M121.608 62.4758C121.608 62.4758 124.004 66.15 128.883 66.6007L131.815 64.1513C131.815 64.1513 128.774 64.3384 124.759 61.064L121.608 62.4758Z" fill="#455A64"/>
<path d="M19.7139 65.9884C19.7139 65.9884 24.976 66.4987 28.1814 63.5985L27.2078 60.3411C27.2078 60.3411 25.709 62.4078 19.9655 63.1647L19.7139 65.9884Z" fill="#BA68C8"/>
<path d="M109.574 34.1372C109.574 34.1372 114.836 34.6475 118.042 31.7558L117.079 28.4984C117.079 28.4984 115.569 30.5566 109.826 31.3221L109.574 34.1372Z" fill="#BA68C8"/>
<path d="M121.51 88.416C121.51 88.416 126.761 88.9178 129.966 86.0261L129.004 82.7687C129.004 82.7687 127.494 84.8354 121.75 85.5924L121.51 88.416Z" fill="#BA68C8"/>
<path d="M55.75 81.0847C55.75 81.0847 58.1459 84.7589 63.0251 85.2096L65.968 82.7602C65.968 82.7602 62.3687 83.1939 58.31 79.9195L55.75 81.0847Z" fill="#455A64"/>
<path d="M50.498 86.5109C50.498 86.5109 51.4389 90.5678 55.968 92.0817L59.6877 90.3807C57.0559 89.4575 54.8687 87.909 53.4409 85.9581L50.498 86.5109Z" fill="#37474F"/>
<path d="M223.219 65.342C223.219 65.342 220.823 69.0161 215.944 69.4669L213.001 67.026C213.001 67.026 216.6 67.4512 220.659 64.1768L223.219 65.342Z" fill="#455A64"/>
<path d="M199.632 60.9364C199.632 60.9364 198.691 64.9933 194.162 66.5157L190.442 64.8147C193.077 63.8903 195.264 62.3385 196.689 60.3836L199.632 60.9364Z" fill="#37474F"/>
</svg>
