<svg width="93" height="24" viewBox="0 0 93 24" fill="none" xmlns="http://www.w3.org/2000/svg">
<g clip-path="url(#clip0_97_279)">
<path fill-rule="evenodd" clip-rule="evenodd" d="M7.89111 6.05096H12.2765C14.0816 6.05096 15.5582 7.52779 15.5582 9.33267C15.5582 11.1377 14.0814 12.6144 12.2765 12.6144H7.89111V6.05096Z" fill="#EF4937"/>
<path fill-rule="evenodd" clip-rule="evenodd" d="M0 10.0487H1.4321V9.47017H9.29859L9.21189 9.19528H1.4321V8.61676H0V10.0487ZM1.1591 9.77569H0.273002V8.88976H1.1591C1.1591 9.2259 1.1591 9.43955 1.1591 9.77569Z" fill="#EF4937"/>
<path fill-rule="evenodd" clip-rule="evenodd" d="M3.44482 5.41H4.87693V5.98852H6.00919L6.61729 6.39845H9.29846V6.68384L6.61162 6.68401C6.39693 6.5531 6.14836 6.40138 5.92249 6.26359H4.87693V6.8421H3.44482V5.41018V5.41ZM4.60392 5.68301H3.71783V6.56893H4.60392C4.60392 6.23279 4.60392 6.01914 4.60392 5.68301Z" fill="#EF4937"/>
<path fill-rule="evenodd" clip-rule="evenodd" d="M2.28369 8.62079H3.71562V8.04227H4.93561L5.54372 7.63234H9.29866V7.34695L5.53822 7.34678C5.32353 7.47769 5.07495 7.62942 4.84909 7.76721H3.71579V7.18869H2.28386V8.62062L2.28369 8.62079ZM3.44279 8.34779H2.55669V7.46186H3.44279C3.44279 7.798 3.44279 8.01165 3.44279 8.34779Z" fill="#EF4937"/>
<path fill-rule="evenodd" clip-rule="evenodd" d="M3.44482 13.2547H4.87693V12.6762H6.00919L6.61729 12.2663H9.29846V11.9809L6.61162 11.9807C6.39693 12.1116 6.14836 12.2633 5.92249 12.4011H4.87693V11.8226H3.44482V13.2545V13.2547ZM4.60392 12.9817H3.71783V12.0958H4.60392C4.60392 12.4319 4.60392 12.6456 4.60392 12.9817Z" fill="#EF4937"/>
<path fill-rule="evenodd" clip-rule="evenodd" d="M2.28369 10.0445H3.71562V10.623H4.93561L5.54372 11.0329H9.29866V11.3183L5.53822 11.3185C5.32353 11.1876 5.07495 11.0358 4.84909 10.898H3.71579V11.4766H2.28386V10.0446L2.28369 10.0445ZM3.44279 10.3175H2.55669V11.2034H3.44279C3.44279 10.8673 3.44279 10.6536 3.44279 10.3175Z" fill="#EF4937"/>
<path fill-rule="evenodd" clip-rule="evenodd" d="M5.08105 17.7852H12.7614C18.2923 17.7852 22.0841 14.4522 22.0841 9.33208C22.0841 4.21178 18.2923 0.878815 12.7614 0.878815H5.08105V4.09102H8.99357H9.62868H12.5681C15.9253 4.09102 18.1231 6.09579 18.1231 9.33208C18.1231 12.5684 15.9253 14.573 12.5681 14.573H9.62868H8.99357H5.08105V17.7852Z" fill="white"/>
<path d="M25.0776 16.5009H28.3958V2.16291H25.0776V16.5009ZM41.4844 13.3056C40.6446 13.7561 39.8048 13.9201 38.9036 13.9201C36.1589 13.9201 34.2539 12.0151 34.2539 9.33184C34.2539 6.60766 36.1587 4.74361 38.9445 4.74361C40.3988 4.74361 41.6073 5.25573 42.652 6.36184L44.7821 4.39543C43.3894 2.7772 41.3 1.91708 38.7807 1.91708C34.2131 1.91708 30.8948 5.01008 30.8948 9.33184C30.8948 13.6538 34.213 16.7466 38.7193 16.7466C40.7676 16.7466 42.9387 16.1117 44.516 14.9237V9.10649H41.4846V13.3054L41.4844 13.3056ZM47.5884 16.5009H50.9065V2.16291H47.5884V16.5009ZM57.2768 16.5009H60.5949V4.86678H65.1832V2.16308H52.6887V4.86678H57.2769V16.5009H57.2768ZM76.9608 16.5009H80.4429L74.0317 2.16291H70.7545L64.3638 16.5009H67.764L69.0339 13.4284H75.6909L76.9608 16.5009ZM70.0989 10.9091L72.3726 5.41967L74.6462 10.9091H70.0991H70.0989ZM81.938 16.5009H92.4457V13.7972H85.2563V2.16308H81.9381V16.5011L81.938 16.5009Z" fill="white"/>
<path d="M8.74709 19.6572L7.27026 22.2035L5.77881 19.6572H5.47949V23.0917H5.82784V20.3587L7.1772 22.6549H7.34888L8.69824 20.3441V23.0917H9.04658V19.6572H8.74726H8.74709ZM12.731 23.0917H13.1138L11.5437 19.6572H11.1855L9.61547 23.0917H9.99323L10.4054 22.1743H12.3188L12.731 23.0917ZM10.5379 21.8798L11.362 20.035L12.1864 21.8798H10.5379ZM16.4256 23.0917L15.5866 21.9142C16.087 21.7523 16.3717 21.3745 16.3717 20.8347C16.3717 20.0988 15.8419 19.6572 14.9685 19.6572H13.6831V23.0917H14.0463V22.0024H14.9687C15.0667 22.0024 15.1552 21.9976 15.2434 21.9878L16.0284 23.0917H16.4257H16.4256ZM14.9585 21.6933H14.0459V19.9712H14.9585C15.6454 19.9712 16.0086 20.2851 16.0086 20.8347C16.0086 21.3744 15.6454 21.6933 14.9585 21.6933ZM19.6981 23.0917H20.1299L18.5403 21.2125L20.0269 19.6572H19.6099L17.5934 21.7327V19.6572H17.2303V23.0917H17.5934V22.1889L18.2949 21.4776L19.6981 23.0917ZM21.0817 22.7777V21.502H22.8579V21.1929H21.0817V19.9712H23.0738V19.6572H20.7188V23.0917H23.1474V22.7777H21.0819H21.0817ZM24.6683 23.0917H25.0314V19.9712H26.2385V19.6572H23.4615V19.9712H24.6684V23.0917H24.6683ZM26.8174 23.0917H27.1805V19.6572H26.8174V23.0917ZM30.8112 19.6572V22.444L28.5985 19.6572H28.2992V23.0917H28.6623V20.3049L30.8703 23.0917H31.1696V19.6572H30.8114H30.8112ZM34.7069 22.5323C34.442 22.7237 34.1377 22.7972 33.8091 22.7972C32.9652 22.7972 32.3421 22.1887 32.3421 21.3744C32.3421 20.555 32.9652 19.9515 33.8139 19.9515C34.2163 19.9515 34.5597 20.0694 34.8492 20.3539L35.0749 20.1232C34.7707 19.7945 34.3193 19.6276 33.7993 19.6276C32.7493 19.6276 31.9839 20.3685 31.9839 21.3744C31.9839 22.3802 32.7494 23.1211 33.7943 23.1211C34.2703 23.1211 34.7315 22.9738 35.0553 22.6843V21.3744H34.7069V22.5323ZM38.3132 23.1211C39.1914 23.1211 39.5938 22.6893 39.5938 22.1839C39.5938 20.9328 37.4791 21.5018 37.4791 20.5598C37.4791 20.2165 37.7588 19.9368 38.3867 19.9368C38.691 19.9368 39.0343 20.03 39.3287 20.2213L39.4513 19.9318C39.1766 19.7405 38.7742 19.6276 38.3867 19.6276C37.5133 19.6276 37.1207 20.0642 37.1207 20.5696C37.1207 21.8404 39.2354 21.2615 39.2354 22.2035C39.2354 22.5421 38.9557 22.812 38.313 22.812C37.8617 22.812 37.4249 22.6353 37.1796 22.395L37.0373 22.6747C37.2924 22.9396 37.7978 23.1213 38.313 23.1213L38.3132 23.1211ZM41.7673 23.1211C42.6456 23.1211 43.1755 22.6107 43.1755 21.6247V19.6572H42.8221V21.61C42.8221 22.4244 42.4394 22.7973 41.7673 22.7973C41.1 22.7973 40.7173 22.4244 40.7173 21.61V19.6572H40.3541V21.6247C40.3541 22.6109 40.8889 23.1211 41.7671 23.1211H41.7673ZM47.5371 19.6572L46.0603 22.2035L44.5689 19.6572H44.2696V23.0917H44.6179V20.3587L45.9673 22.6549H46.1389L47.4883 20.3441V23.0917H47.8366V19.6572H47.5373H47.5371ZM52.2227 19.6572L50.7459 22.2035L49.2545 19.6572H48.9551V23.0917H49.3035V20.3587L50.6529 22.6549H50.8245L52.1739 20.3441V23.0917H52.5222V19.6572H52.2229H52.2227ZM53.6407 23.0917H54.0039V19.6572H53.6407V23.0917ZM55.7897 23.0917H56.1528V19.9712H57.3599V19.6572H54.5829V19.9712H55.7898V23.0917H55.7897Z" fill="#030815"/>
<path d="M8.74709 19.3757L7.27026 21.922L5.77881 19.3757H5.47949V22.8101H5.82784V20.0772L7.1772 22.3733H7.34888L8.69824 20.0626V22.8101H9.04658V19.3757H8.74726H8.74709ZM12.731 22.8101H13.1138L11.5437 19.3757H11.1855L9.61547 22.8101H9.99323L10.4054 21.8927H12.3188L12.731 22.8101ZM10.5379 21.5982L11.362 19.7534L12.1864 21.5982H10.5379ZM16.4256 22.8101L15.5866 21.6326C16.087 21.4707 16.3717 21.093 16.3717 20.5532C16.3717 19.8172 15.8419 19.3757 14.9685 19.3757H13.6831V22.8101H14.0463V21.7209H14.9687C15.0667 21.7209 15.1552 21.716 15.2434 21.7062L16.0284 22.8101H16.4257H16.4256ZM14.9585 21.4117H14.0459V19.6896H14.9585C15.6454 19.6896 16.0086 20.0035 16.0086 20.5532C16.0086 21.0928 15.6454 21.4117 14.9585 21.4117ZM19.6981 22.8101H20.1299L18.5403 20.9309L20.0269 19.3757H19.6099L17.5934 21.4511V19.3757H17.2303V22.8101H17.5934V21.9073L18.2949 21.196L19.6981 22.8101ZM21.0817 22.4962V21.2204H22.8579V20.9113H21.0817V19.6896H23.0738V19.3757H20.7188V22.8101H23.1474V22.4962H21.0819H21.0817ZM24.6683 22.8101H25.0314V19.6896H26.2385V19.3757H23.4615V19.6896H24.6684V22.8101H24.6683ZM26.8174 22.8101H27.1805V19.3757H26.8174V22.8101ZM30.8112 19.3757V22.1624L28.5985 19.3757H28.2992V22.8101H28.6623V20.0233L30.8703 22.8101H31.1696V19.3757H30.8114H30.8112ZM34.7069 22.2507C34.442 22.4422 34.1377 22.5156 33.8091 22.5156C32.9652 22.5156 32.3421 21.9072 32.3421 21.0928C32.3421 20.2734 32.9652 19.67 33.8139 19.67C34.2163 19.67 34.5597 19.7878 34.8492 20.0724L35.0749 19.8417C34.7707 19.5129 34.3193 19.3461 33.7993 19.3461C32.7493 19.3461 31.9839 20.087 31.9839 21.0928C31.9839 22.0986 32.7494 22.8395 33.7943 22.8395C34.2703 22.8395 34.7315 22.6923 35.0553 22.4028V21.0928H34.7069V22.2507ZM38.3132 22.8395C39.1914 22.8395 39.5938 22.4078 39.5938 21.9023C39.5938 20.6512 37.4791 21.2203 37.4791 20.2783C37.4791 19.9349 37.7588 19.6552 38.3867 19.6552C38.691 19.6552 39.0343 19.7484 39.3287 19.9397L39.4513 19.6502C39.1766 19.4589 38.7742 19.3461 38.3867 19.3461C37.5133 19.3461 37.1207 19.7827 37.1207 20.2881C37.1207 21.5588 39.2354 20.98 39.2354 21.922C39.2354 22.2605 38.9557 22.5304 38.313 22.5304C37.8617 22.5304 37.4249 22.3537 37.1796 22.1134L37.0373 22.3931C37.2924 22.658 37.7978 22.8397 38.313 22.8397L38.3132 22.8395ZM41.7673 22.8395C42.6456 22.8395 43.1755 22.3291 43.1755 21.3431V19.3757H42.8221V21.3285C42.8221 22.1428 42.4394 22.5158 41.7673 22.5158C41.1 22.5158 40.7173 22.1428 40.7173 21.3285V19.3757H40.3541V21.3431C40.3541 22.3293 40.8889 22.8395 41.7671 22.8395H41.7673ZM47.5371 19.3757L46.0603 21.922L44.5689 19.3757H44.2696V22.8101H44.6179V20.0772L45.9673 22.3733H46.1389L47.4883 20.0626V22.8101H47.8366V19.3757H47.5373H47.5371ZM52.2227 19.3757L50.7459 21.922L49.2545 19.3757H48.9551V22.8101H49.3035V20.0772L50.6529 22.3733H50.8245L52.1739 20.0626V22.8101H52.5222V19.3757H52.2229H52.2227ZM53.6407 22.8101H54.0039V19.3757H53.6407V22.8101ZM55.7897 22.8101H56.1528V19.6896H57.3599V19.3757H54.5829V19.6896H55.7898V22.8101H55.7897Z" fill="#96E1FF"/>
<path fill-rule="evenodd" clip-rule="evenodd" d="M58.5757 19.0645H75.8402V23.1213H58.5757V19.0645Z" fill="#EF4937"/>
<path d="M61.5502 21.0603C61.6818 20.9923 61.7563 20.874 61.7563 20.7271C61.7563 20.4904 61.559 20.3259 61.1556 20.3259H60.3706V21.8606H61.1992C61.6114 21.8606 61.8306 21.7049 61.8306 21.4396C61.8306 21.2533 61.7232 21.1217 61.55 21.0603H61.5502ZM61.0984 20.6394C61.2431 20.6394 61.3176 20.6898 61.3176 20.7863C61.3176 20.885 61.2431 20.9354 61.0984 20.9354H60.8003V20.6395H61.0984V20.6394ZM61.1642 21.547H60.8003V21.2356H61.1642C61.3133 21.2356 61.3923 21.286 61.3923 21.3913C61.3923 21.4964 61.3133 21.547 61.1642 21.547ZM63.4333 20.3258H63.0124L62.6485 20.9352L62.2845 20.3258H61.8264L62.4118 21.3035V21.8604H62.8459V21.3101L63.4335 20.3258H63.4333ZM64.9459 21.8912C65.2287 21.8912 65.4568 21.7881 65.6058 21.6018L65.3295 21.3519C65.233 21.4682 65.1147 21.5316 64.9678 21.5316C64.7156 21.5316 64.5403 21.3564 64.5403 21.0932C64.5403 20.8301 64.7156 20.6547 64.9678 20.6547C65.1147 20.6547 65.233 20.7183 65.3295 20.8344L65.6058 20.5845C65.4567 20.3982 65.2287 20.2951 64.9459 20.2951C64.4593 20.2951 64.102 20.6261 64.102 21.0932C64.102 21.5602 64.4593 21.8912 64.9459 21.8912ZM66.8248 20.3258V20.9024H66.2328V20.3258H65.7988V21.8604H66.2328V21.2619H66.8248V21.8604H67.2588V20.3258H66.8248ZM68.5151 21.8604H68.9799L68.6489 21.378C68.8397 21.286 68.9493 21.1193 68.9493 20.8934C68.9493 20.5427 68.6863 20.3256 68.2675 20.3256H67.566V21.8602H68V21.4525H68.2368L68.5153 21.8602L68.5151 21.8604ZM68.5106 20.8936C68.5106 21.034 68.4208 21.1172 68.2409 21.1172H67.9997V20.6677H68.2409C68.4206 20.6677 68.5106 20.751 68.5106 20.8936ZM69.962 21.8912C70.4531 21.8912 70.8147 21.5535 70.8147 21.0932C70.8147 20.6328 70.4529 20.2951 69.962 20.2951C69.4709 20.2951 69.1093 20.6328 69.1093 21.0932C69.1093 21.5535 69.471 21.8912 69.962 21.8912ZM69.962 21.5316C69.7296 21.5316 69.5476 21.3584 69.5476 21.0932C69.5476 20.8279 69.7296 20.6547 69.962 20.6547C70.1944 20.6547 70.3764 20.8279 70.3764 21.0932C70.3764 21.3584 70.1944 21.5316 69.962 21.5316ZM72.0775 20.3259V21.1437L71.4001 20.3259H71.0428V21.8606H71.4681V21.0428L72.1455 21.8606H72.5028V20.3259H72.0775ZM73.2396 21.5251V21.2445H73.9213V20.9201H73.2396V20.6614H74.0135V20.3259H72.8098V21.8606H74.0419V21.5251H73.2396Z" fill="white"/>
</g>
<defs>
<clipPath id="clip0_97_279">
<rect width="92.4459" height="22.2424" fill="white" transform="translate(0 0.878815)"/>
</clipPath>
</defs>
</svg>
