<svg width="112" height="114" viewBox="0 0 112 114" fill="none" xmlns="http://www.w3.org/2000/svg">
<path d="M19.8569 105.268L80.0167 77.1253L37.0302 33.7549L9.13691 94.4251C8.73688 95.3936 7.2169 99.295 11.3502 103.008C15.8302 107.017 18.8969 105.671 19.8569 105.268Z" fill="url(#paint0_linear_147_1495)"/>
<path d="M31.0032 46.8568L26.5232 56.677C25.0832 60.2017 50.63 86.2185 65.0566 84.12L80.0165 77.1248C62.2832 85.3847 28.8166 51.6457 31.0032 46.8568Z" fill="url(#paint1_linear_147_1495)"/>
<path d="M21.937 66.6582L20.897 68.8914L17.377 76.532C17.3503 79.5454 32.737 95.0424 42.3637 94.7199L54.5771 89.0157C41.3503 91.3299 20.417 69.9135 21.937 66.6582Z" fill="url(#paint2_linear_147_1495)"/>
<path d="M9.42969 93.8343C10.7097 96.4172 16.9764 102.713 22.1764 104.193L35.0831 98.1659L35.163 98.1122C27.2164 101.798 13.7764 88.1306 13.5364 84.9557L9.42969 93.8343Z" fill="url(#paint3_linear_147_1495)"/>
<path opacity="0.75" d="M19.8569 105.268L80.0167 77.1253L37.0302 33.7549L9.13691 94.4251C8.73688 95.3936 7.2169 99.295 11.3502 103.008C15.8302 107.017 18.8969 105.671 19.8569 105.268Z" fill="url(#paint4_radial_147_1495)"/>
<path opacity="0.75" d="M19.8569 105.268L80.0167 77.1253L37.0302 33.7549L9.13691 94.4251C8.73688 95.3936 7.2169 99.295 11.3502 103.008C15.8302 107.017 18.8969 105.671 19.8569 105.268Z" fill="url(#paint5_radial_147_1495)"/>
<path d="M57.5913 33.9692C56.8712 35.4489 55.4577 35.6642 54.418 35.3413L56.1246 31.9244C56.1246 31.9244 58.0444 32.3549 58.0981 31.0904L58.1779 32.8661L57.5913 33.9692Z" fill="url(#paint6_linear_147_1495)"/>
<path d="M93.5639 41.0195C94.1239 36.0691 90.8171 34.4278 89.6173 34.5624C89.6173 34.5624 89.4036 32.9481 91.5372 32.4369C92.9502 32.1141 96.5506 35.3426 95.6172 39.0016L93.5639 41.0195Z" fill="url(#paint7_linear_147_1495)"/>
<path d="M80.5235 76.7491C77.5368 79.7624 65.4833 72.4443 53.5632 60.4451C41.6699 48.4454 34.4166 36.2575 37.4033 33.2441C40.3899 30.2308 52.4432 37.5489 64.3633 49.5486C76.2567 61.5751 83.4831 73.7358 80.5235 76.7491Z" fill="url(#paint8_linear_147_1495)"/>
<path d="M79.5105 74.757C77.2439 77.0438 66.4172 69.8335 55.3507 58.6413C44.284 47.4488 37.1107 36.5523 39.3773 34.2654C41.644 31.9786 52.4704 39.189 63.5374 50.3815C74.604 61.5737 81.7771 72.4702 79.5105 74.757Z" fill="url(#paint9_linear_147_1495)"/>
<path d="M71.2705 62.9188C74.0705 59.6903 76.6838 62.2197 78.3367 59.9055L75.5101 57C73.8567 59.2868 71.4571 57.1347 68.4971 60.2822L71.2705 62.9188Z" fill="url(#paint10_linear_147_1495)"/>
<path d="M40.8975 23.7464C44.7641 26.0602 41.3241 29.235 43.5108 31.0376L46.5242 28.3202C44.3375 26.5176 47.4841 23.3967 43.6175 21.0829L40.8975 23.7464Z" fill="url(#paint11_linear_147_1495)"/>
<path d="M81.831 35.7178C81.9378 35.6909 81.991 35.0452 83.5642 33.9152C85.1378 32.7852 88.6844 34.534 89.1376 34.803C89.6178 35.0721 89.2178 39.5114 89.2178 39.5114C89.2178 39.5114 84.791 34.7492 82.5776 35.8523C80.3642 36.9285 81.831 35.7178 81.831 35.7178Z" fill="url(#paint12_linear_147_1495)"/>
<path d="M82.4175 46.7766C82.4175 46.7766 82.2574 48.5255 81.4576 49.3325C80.0174 50.7586 77.7242 48.606 74.8174 49.3862C74.8174 49.3862 76.1507 45.9695 76.2841 45.7004C76.2841 45.7004 77.4573 44.974 78.6576 45.6735C79.884 46.3461 80.9508 46.5613 81.6975 46.1578C82.4441 45.7542 82.4175 46.7766 82.4175 46.7766Z" fill="url(#paint13_linear_147_1495)"/>
<path d="M90.2304 39.0808C90.2304 39.0808 87.3767 40.3992 87.0034 40.5875C86.6301 40.7758 85.777 34.0765 87.8303 33.4039C89.9103 32.7313 91.3238 32.4892 91.5371 32.4623C91.7503 32.4085 87.9638 32.812 90.2304 39.0808Z" fill="#FFBF00"/>
<path d="M81.4567 49.3047C82.6304 48.0669 84.2301 46.2375 84.1503 45.7263C83.777 42.4439 81.137 35.2066 83.5637 33.8882C83.5637 33.8882 81.2966 35.5025 80.6036 35.9868C79.9101 36.4711 79.4034 37.7625 79.457 39.888C79.59 43.6009 82.5235 48.2015 81.4567 49.3047Z" fill="#FFBF00"/>
<path d="M73.351 22.7497C71.4045 36.5518 57.8311 49.7351 57.8311 49.7351L59.6711 52.5601C59.6711 52.5601 74.4444 37.0361 76.3377 23.1801L73.351 22.7497Z" fill="url(#paint14_linear_147_1495)"/>
<path d="M62.3637 15.1366C62.3637 15.1366 63.5901 14.5716 64.3634 12.9573C65.1371 11.343 61.3235 8.3028 61.3235 8.3028L59.5371 11.4506C59.5371 11.4506 62.5504 13.4416 61.617 14.1142C60.6571 14.7868 62.3637 15.1366 62.3637 15.1366Z" fill="url(#paint15_linear_147_1495)"/>
<path d="M64.3376 12.9583C64.3376 12.9583 62.9511 15.9447 62.7644 16.2675C62.071 17.4513 60.124 17.8549 56.631 17.3706C53.1376 16.8863 52.1244 17.0747 51.9644 17.1016C51.8043 17.1554 49.751 15.4873 49.751 15.4873L49.9376 13.7923C49.9376 13.7923 50.4174 13.1466 52.0176 13.3618C54.8708 13.7923 63.2708 15.2183 64.3376 12.9583Z" fill="url(#paint16_linear_147_1495)"/>
<path d="M48.3102 16.9928C47.9901 17.5847 48.9234 18.5802 51.1634 21.3245C53.4034 24.0687 59.2172 31.333 57.5638 33.9697L59.3502 30.2569C59.3502 30.2569 59.3768 27.2973 57.617 24.4185C54.8436 19.8985 49.5371 15.0288 49.937 13.818L48.3102 16.9928Z" fill="url(#paint17_linear_147_1495)"/>
<path d="M60.2037 58.9902C60.8076 58.9902 61.2972 58.4963 61.2972 57.8871C61.2972 57.2778 60.8076 56.7839 60.2037 56.7839C59.5999 56.7839 59.1104 57.2778 59.1104 57.8871C59.1104 58.4963 59.5999 58.9902 60.2037 58.9902Z" fill="url(#paint18_linear_147_1495)"/>
<path d="M75.4303 13.1459C76.0342 13.1459 76.5237 12.652 76.5237 12.0428C76.5237 11.4336 76.0342 10.9397 75.4303 10.9397C74.8264 10.9397 74.3369 11.4336 74.3369 12.0428C74.3369 12.652 74.8264 13.1459 75.4303 13.1459Z" fill="url(#paint19_linear_147_1495)"/>
<path d="M65.1627 29.1538C65.7666 29.1538 66.2561 28.6599 66.2561 28.0507C66.2561 27.4415 65.7666 26.9476 65.1627 26.9476C64.5589 26.9476 64.0693 27.4415 64.0693 28.0507C64.0693 28.6599 64.5589 29.1538 65.1627 29.1538Z" fill="url(#paint20_linear_147_1495)"/>
<path d="M71.6432 49.3598C72.2471 49.3598 72.7366 48.8659 72.7366 48.2566C72.7366 47.6474 72.2471 47.1534 71.6432 47.1534C71.0393 47.1534 70.5498 47.6474 70.5498 48.2566C70.5498 48.8659 71.0393 49.3598 71.6432 49.3598Z" fill="url(#paint21_linear_147_1495)"/>
<path d="M99.7506 46.6698C100.354 46.6698 100.844 46.1759 100.844 45.5667C100.844 44.9575 100.354 44.4636 99.7506 44.4636C99.1468 44.4636 98.6572 44.9575 98.6572 45.5667C98.6572 46.1759 99.1468 46.6698 99.7506 46.6698Z" fill="url(#paint22_linear_147_1495)"/>
<path d="M92.7907 69.9427C93.3945 69.9427 93.8841 69.4488 93.8841 68.8396C93.8841 68.2303 93.3945 67.7364 92.7907 67.7364C92.1868 67.7364 91.6973 68.2303 91.6973 68.8396C91.6973 69.4488 92.1868 69.9427 92.7907 69.9427Z" fill="url(#paint23_linear_147_1495)"/>
<path d="M88.2306 55.7349C88.8345 55.7349 89.324 55.241 89.324 54.6317C89.324 54.0225 88.8345 53.5285 88.2306 53.5285C87.6272 53.5285 87.1377 54.0225 87.1377 54.6317C87.1377 55.241 87.6272 55.7349 88.2306 55.7349Z" fill="url(#paint24_linear_147_1495)"/>
<path d="M94.2311 25.7651C94.835 25.7651 95.3245 25.2712 95.3245 24.6619C95.3245 24.0527 94.835 23.5589 94.2311 23.5589C93.6272 23.5589 93.1377 24.0527 93.1377 24.6619C93.1377 25.2712 93.6272 25.7651 94.2311 25.7651Z" fill="url(#paint25_linear_147_1495)"/>
<path d="M81.9635 29.3699C82.5674 29.3699 83.0569 28.876 83.0569 28.2668C83.0569 27.6576 82.5674 27.1637 81.9635 27.1637C81.3597 27.1637 80.8701 27.6576 80.8701 28.2668C80.8701 28.876 81.3597 29.3699 81.9635 29.3699Z" fill="url(#paint26_linear_147_1495)"/>
<path d="M72.6033 72.9551C83.7496 63.7268 102.63 61.8166 102.63 61.8166L103.243 57.5655C103.243 57.5655 80.8964 60.2558 69.0566 70.6142C70.3362 71.5021 71.5099 72.2823 72.6033 72.9551Z" fill="url(#paint27_linear_147_1495)"/>
<path d="M44.6309 46.3723C45.3775 47.3948 46.2042 48.4172 47.084 49.4935C49.4575 44.22 48.9507 40.0766 48.9507 40.0766L46.0442 38.2471C46.3375 41.5026 45.3509 44.6236 44.6309 46.3723Z" fill="url(#paint28_linear_147_1495)"/>
<defs>
<linearGradient id="paint0_linear_147_1495" x1="5.60657" y1="42.2307" x2="53.6951" y2="98.714" gradientUnits="userSpaceOnUse">
<stop offset="0.2544" stop-color="#FBE07A"/>
<stop offset="1" stop-color="#FF40BF"/>
</linearGradient>
<linearGradient id="paint1_linear_147_1495" x1="31.4717" y1="46.3946" x2="71.3189" y2="85.8893" gradientUnits="userSpaceOnUse">
<stop offset="0.2544" stop-color="#9F00E8"/>
<stop offset="1" stop-color="#7000A3"/>
</linearGradient>
<linearGradient id="paint2_linear_147_1495" x1="20.5247" y1="68.0881" x2="48.1603" y2="95.479" gradientUnits="userSpaceOnUse">
<stop offset="0.2544" stop-color="#9F00E8"/>
<stop offset="1" stop-color="#7000A3"/>
</linearGradient>
<linearGradient id="paint3_linear_147_1495" x1="12.2438" y1="86.2228" x2="29.7331" y2="103.557" gradientUnits="userSpaceOnUse">
<stop offset="0.2544" stop-color="#9F00E8"/>
<stop offset="1" stop-color="#7000A3"/>
</linearGradient>
<radialGradient id="paint4_radial_147_1495" cx="0" cy="0" r="1" gradientTransform="matrix(-13.4948 23.9693 -7.27323 -4.16832 31.3956 61.2714)" gradientUnits="userSpaceOnUse">
<stop stop-color="white" stop-opacity="0.5"/>
<stop offset="1" stop-color="white" stop-opacity="0"/>
</radialGradient>
<radialGradient id="paint5_radial_147_1495" cx="0" cy="0" r="1" gradientTransform="matrix(-38.1346 20.7167 -6.40411 -11.9999 50.5957 85.9826)" gradientUnits="userSpaceOnUse">
<stop stop-color="#440063" stop-opacity="0.75"/>
<stop offset="1" stop-color="#420061" stop-opacity="0"/>
</radialGradient>
<linearGradient id="paint6_linear_147_1495" x1="57.7934" y1="32.9642" x2="64.3495" y2="30.8889" gradientUnits="userSpaceOnUse">
<stop stop-color="#BD2719"/>
<stop offset="1" stop-color="#FF4E0D"/>
</linearGradient>
<linearGradient id="paint7_linear_147_1495" x1="96.474" y1="39.0149" x2="85.5019" y2="32.0465" gradientUnits="userSpaceOnUse">
<stop stop-color="#FFCB4B"/>
<stop offset="1" stop-color="#E81CA2"/>
</linearGradient>
<linearGradient id="paint8_linear_147_1495" x1="68.5054" y1="24.6227" x2="43.7191" y2="102.077" gradientUnits="userSpaceOnUse">
<stop offset="0.2544" stop-color="#FBE07A"/>
<stop offset="1" stop-color="#E81CA2"/>
</linearGradient>
<linearGradient id="paint9_linear_147_1495" x1="76.5136" y1="42.4305" x2="38.8635" y2="68.6031" gradientUnits="userSpaceOnUse">
<stop stop-color="#FBE07A"/>
<stop offset="1" stop-color="white"/>
</linearGradient>
<linearGradient id="paint10_linear_147_1495" x1="74.8414" y1="57.5721" x2="71.8945" y2="62.8128" gradientUnits="userSpaceOnUse">
<stop stop-color="#FF9214"/>
<stop offset="1" stop-color="#FF4E0D"/>
</linearGradient>
<linearGradient id="paint11_linear_147_1495" x1="40.8802" y1="17.1177" x2="45.3463" y2="29.7828" gradientUnits="userSpaceOnUse">
<stop stop-color="#80DAFE"/>
<stop offset="1" stop-color="#008EE6"/>
</linearGradient>
<linearGradient id="paint12_linear_147_1495" x1="85.8042" y1="41.7755" x2="84.7796" y2="28.976" gradientUnits="userSpaceOnUse">
<stop stop-color="#FFCB4B"/>
<stop offset="1" stop-color="#E81CA2"/>
</linearGradient>
<linearGradient id="paint13_linear_147_1495" x1="75.1482" y1="47.1717" x2="82.1617" y2="48.2977" gradientUnits="userSpaceOnUse">
<stop stop-color="#FFCB4B"/>
<stop offset="1" stop-color="#E81CA2"/>
</linearGradient>
<linearGradient id="paint14_linear_147_1495" x1="70.3307" y1="23.2463" x2="59.7551" y2="66.383" gradientUnits="userSpaceOnUse">
<stop offset="0.2544" stop-color="#E100FF"/>
<stop offset="1" stop-color="#7000A3"/>
</linearGradient>
<linearGradient id="paint15_linear_147_1495" x1="63.878" y1="16.5787" x2="60.9023" y2="9.25106" gradientUnits="userSpaceOnUse">
<stop stop-color="#BD2719"/>
<stop offset="1" stop-color="#FF4E0D"/>
</linearGradient>
<linearGradient id="paint16_linear_147_1495" x1="46.3842" y1="15.5113" x2="58.4735" y2="15.3298" gradientUnits="userSpaceOnUse">
<stop stop-color="#BD2719"/>
<stop offset="1" stop-color="#FF4E0D"/>
</linearGradient>
<linearGradient id="paint17_linear_147_1495" x1="49.8759" y1="16.1717" x2="57.6699" y2="29.0468" gradientUnits="userSpaceOnUse">
<stop stop-color="#FF9214"/>
<stop offset="1" stop-color="#FF4E0D"/>
</linearGradient>
<linearGradient id="paint18_linear_147_1495" x1="58.1126" y1="51.6782" x2="62.3307" y2="63.9756" gradientUnits="userSpaceOnUse">
<stop stop-color="#FFCB4B"/>
<stop offset="1" stop-color="#E81CA2"/>
</linearGradient>
<linearGradient id="paint19_linear_147_1495" x1="72.095" y1="6.52578" x2="79.0222" y2="17.8057" gradientUnits="userSpaceOnUse">
<stop stop-color="#FBE07A"/>
<stop offset="1" stop-color="#E81CA2"/>
</linearGradient>
<linearGradient id="paint20_linear_147_1495" x1="64.9999" y1="27.4402" x2="66.7379" y2="33.9623" gradientUnits="userSpaceOnUse">
<stop stop-color="#80DAFE"/>
<stop offset="1" stop-color="#008EE6"/>
</linearGradient>
<linearGradient id="paint21_linear_147_1495" x1="70.9063" y1="46.1617" x2="71.9664" y2="49.1679" gradientUnits="userSpaceOnUse">
<stop stop-color="#80DAFE"/>
<stop offset="1" stop-color="#008EE6"/>
</linearGradient>
<linearGradient id="paint22_linear_147_1495" x1="100.543" y1="42.9915" x2="98.5577" y2="49.265" gradientUnits="userSpaceOnUse">
<stop stop-color="#FFCB4B"/>
<stop offset="1" stop-color="#E81CA2"/>
</linearGradient>
<linearGradient id="paint23_linear_147_1495" x1="92.4687" y1="61.7912" x2="93.09" y2="75.2198" gradientUnits="userSpaceOnUse">
<stop stop-color="#FFCB4B"/>
<stop offset="1" stop-color="#E81CA2"/>
</linearGradient>
<linearGradient id="paint24_linear_147_1495" x1="87.5148" y1="52.5469" x2="88.5744" y2="55.5529" gradientUnits="userSpaceOnUse">
<stop offset="0.2544" stop-color="#9F00E8"/>
<stop offset="1" stop-color="#7000A3"/>
</linearGradient>
<linearGradient id="paint25_linear_147_1495" x1="96.3535" y1="20.986" x2="92.2699" y2="27.977" gradientUnits="userSpaceOnUse">
<stop stop-color="#80DAFE"/>
<stop offset="1" stop-color="#008EE6"/>
</linearGradient>
<linearGradient id="paint26_linear_147_1495" x1="81.6816" y1="26.7016" x2="83.048" y2="34.2127" gradientUnits="userSpaceOnUse">
<stop stop-color="#FF9214"/>
<stop offset="1" stop-color="#FF4E0D"/>
</linearGradient>
<linearGradient id="paint27_linear_147_1495" x1="61.4994" y1="64.7028" x2="100.433" y2="65.4956" gradientUnits="userSpaceOnUse">
<stop stop-color="#80DAFE"/>
<stop offset="1" stop-color="#008EE6"/>
</linearGradient>
<linearGradient id="paint28_linear_147_1495" x1="39.9926" y1="60.333" x2="49.4696" y2="36.9843" gradientUnits="userSpaceOnUse">
<stop stop-color="#FBE07A"/>
<stop offset="1" stop-color="#E81CA2"/>
</linearGradient>
</defs>
</svg>
