<svg width="12" height="13" viewBox="0 0 12 13" fill="none" xmlns="http://www.w3.org/2000/svg">
<path d="M10.0001 4.49999L3.48012 0.779993C3.21538 0.627143 2.91504 0.546739 2.60934 0.546875C2.30364 0.547012 2.00337 0.627684 1.73877 0.78077C1.47416 0.933856 1.25456 1.15395 1.10207 1.4189C0.949573 1.68385 0.869572 1.98429 0.87012 2.28999V10.71C0.869572 11.0157 0.949573 11.3161 1.10207 11.5811C1.25456 11.846 1.47416 12.0661 1.73877 12.2192C2.00337 12.3723 2.30364 12.453 2.60934 12.4531C2.91504 12.4532 3.21538 12.3728 3.48012 12.22L10.0001 8.49999C10.3645 8.30825 10.6696 8.02061 10.8824 7.66814C11.0952 7.31566 11.2077 6.91174 11.2077 6.49999C11.2077 6.08825 11.0952 5.68433 10.8824 5.33185C10.6696 4.97937 10.3645 4.69173 10.0001 4.49999Z" fill="#3F3F3F"/>
</svg>
